<svg width="1080" height="1080" viewBox="0 0 1080 1080" fill="white" xmlns="http://www.w3.org/2000/svg">
<circle cx="540" cy="540" r="540" fill="white"/>
<g clip-path="url(#clip0_25_4597)">
<path d="M539.137 678.57C710.737 678.57 849.845 539.974 849.845 369.008C849.845 359.579 849.42 350.249 848.591 341.035L783.162 406.225C766.031 524.102 664.202 614.662 541.142 614.662C473.558 614.662 412.378 587.347 368.114 543.194L321.11 589.557C377.2 644.602 454.187 678.57 539.137 678.57Z" fill="#16B1E1"/>
<path d="M230.382 403.898C229.093 392.445 228.431 380.803 228.431 369.007C228.431 198.041 367.538 59.4453 539.137 59.4453C626.679 59.4453 705.766 95.5161 762.237 153.554L715.486 200.136C671.121 155.209 609.397 127.349 541.142 127.349C417.957 127.349 316.044 218.092 299.069 336.146L230.382 403.898Z" fill="#16B1E1"/>
<path fill-rule="evenodd" clip-rule="evenodd" d="M847.016 410.951C848.881 397.236 849.845 383.236 849.845 369.011C849.845 357.537 849.216 346.209 847.998 335.059H230.278C229.057 346.209 228.431 357.537 228.431 369.011C228.431 383.236 229.394 397.236 231.258 410.951H847.016ZM404.955 335.064H749.176V410.951H404.955V335.064Z" fill="#16B1E1"/>
<path fill-rule="evenodd" clip-rule="evenodd" d="M697.496 217.226C687.473 205.242 678.154 197.254 667.028 189.864C632.149 166.697 591.055 155.113 543.748 155.113C503.657 155.113 467.174 164.3 434.299 182.674C401.826 200.649 376.167 226.013 357.324 258.767C338.882 291.121 329.661 327.869 329.661 369.01C329.661 410.152 338.882 446.9 357.324 479.254C376.167 511.606 401.826 536.973 434.299 555.348C467.174 573.322 503.857 582.307 544.349 582.307C580.431 582.307 612.905 574.919 641.771 560.138C671.037 544.961 694.893 524.989 713.332 500.225C731.776 475.46 745.805 441.508 749.617 410.951L749.418 346.243H749.413L749.427 335.059H749.422L666.294 410.952H666.299C659.835 441.022 646.447 464.589 626.135 481.651C605.689 498.427 579.429 506.815 547.356 506.815C521.297 506.815 498.445 501.223 478.8 490.039C459.156 478.855 443.72 462.878 432.495 442.107C421.67 421.336 416.258 396.971 416.258 369.01C416.258 341.849 421.67 317.883 432.495 297.112C443.32 276.342 458.354 260.364 477.598 249.18C496.841 237.996 518.891 232.404 543.748 232.404C566.199 232.404 585.844 236.997 602.682 246.184C604.664 247.265 606.542 248.262 608.351 249.222L608.351 249.222C619.217 254.989 627.622 259.449 641.37 273.146L697.496 217.226ZM625.113 410.952L708.244 335.059H517.087V410.952H625.113Z" fill="#001A1F"/>
</g>
<path d="M252.721 792.678C248.513 784.993 242.729 779.143 235.367 775.126C228.004 771.11 219.417 769.101 209.6 769.101C198.734 769.101 189.094 771.546 180.678 776.436C172.265 781.326 165.693 788.311 160.96 797.393C156.227 806.474 153.86 816.952 153.86 828.828C153.86 841.053 156.227 851.705 160.96 860.787C165.867 869.868 172.616 876.854 181.206 881.743C189.793 886.633 199.785 889.078 211.178 889.078C225.201 889.078 236.683 885.411 245.621 878.076C254.562 870.567 260.435 860.176 263.238 846.903H200.136V818.873H299.522V850.832C297.067 863.581 291.809 875.369 283.747 886.197C275.682 897.024 265.253 905.756 252.458 912.393C239.837 918.854 225.641 922.085 209.862 922.085C192.16 922.085 176.122 918.156 161.748 910.297C147.551 902.264 136.332 891.174 128.093 877.028C120.031 862.883 116 846.816 116 828.828C116 810.84 120.031 794.773 128.093 780.627C136.332 766.307 147.551 755.217 161.748 747.359C176.122 739.325 192.071 735.309 209.6 735.309C230.285 735.309 248.25 740.373 263.501 750.502C278.751 760.457 289.268 774.515 295.052 792.678H252.721Z" fill="#001A1F"/>
<path d="M363.568 726.66V920.509H326.756V726.66H363.568Z" fill="#001A1F"/>
<path d="M464.613 922.872C450.59 922.872 437.969 919.815 426.75 913.703C415.534 907.416 406.681 898.597 400.195 887.245C393.886 875.894 390.729 862.796 390.729 847.951C390.729 833.107 393.972 820.009 400.458 808.658C407.118 797.306 416.148 788.574 427.541 782.462C438.934 776.175 451.641 773.031 465.664 773.031C479.686 773.031 492.396 776.175 503.789 782.462C515.183 788.574 524.121 797.306 530.607 808.658C537.267 820.009 540.599 833.107 540.599 847.951C540.599 862.796 537.181 875.894 530.344 887.245C523.684 898.597 514.569 907.416 503.001 913.703C491.605 919.815 478.81 922.872 464.613 922.872ZM464.613 890.913C471.273 890.913 477.497 889.341 483.28 886.197C489.241 882.879 493.972 877.989 497.477 871.528C500.983 865.066 502.736 857.207 502.736 847.951C502.736 834.155 499.056 823.589 491.693 816.254C484.508 808.745 475.655 804.99 465.138 804.99C454.621 804.99 445.769 808.745 438.583 816.254C431.572 823.589 428.066 834.155 428.066 847.951C428.066 861.748 431.483 872.401 438.321 879.91C445.332 887.245 454.096 890.913 464.613 890.913Z" fill="#001A1F"/>
<path d="M604.41 796.603C609.143 789.617 615.629 783.942 623.868 779.576C632.281 775.21 641.833 773.027 652.527 773.027C664.971 773.027 676.191 776.083 686.182 782.195C696.348 788.308 704.324 797.04 710.108 808.391C716.066 819.568 719.047 832.579 719.047 847.423C719.047 862.267 716.066 875.453 710.108 886.979C704.324 898.33 696.348 907.15 686.182 913.437C676.191 919.724 664.971 922.867 652.527 922.867C641.659 922.867 632.107 920.771 623.868 916.58C615.804 912.214 609.32 906.626 604.41 899.815V920.509H567.601V726.66H604.41V796.603ZM681.449 847.423C681.449 838.691 679.608 831.182 675.928 824.895C672.422 818.433 667.689 813.543 661.728 810.225C655.945 806.907 649.635 805.248 642.798 805.248C636.138 805.248 629.826 806.994 623.868 810.487C618.085 813.805 613.351 818.695 609.669 825.156C606.163 831.618 604.41 839.215 604.41 847.947C604.41 856.679 606.163 864.276 609.669 870.737C613.351 877.199 618.085 882.176 623.868 885.669C629.826 888.987 636.138 890.646 642.798 890.646C649.635 890.646 655.945 888.9 661.728 885.407C667.689 881.914 672.422 876.937 675.928 870.475C679.608 864.014 681.449 856.329 681.449 847.423Z" fill="#001A1F"/>
<path d="M736.326 847.427C736.326 832.758 739.221 819.747 745.005 808.396C750.963 797.044 758.939 788.312 768.931 782.2C779.096 776.087 790.404 773.031 802.848 773.031C813.716 773.031 823.18 775.214 831.245 779.58C839.484 783.946 846.055 789.447 850.963 796.084V775.389H888.038V920.514H850.963V899.295C846.232 906.106 839.658 911.782 831.245 916.323C823.006 920.689 813.454 922.872 802.586 922.872C790.316 922.872 779.096 919.728 768.931 913.441C758.939 907.154 750.963 898.335 745.005 886.983C739.221 875.457 736.326 862.272 736.326 847.427ZM850.963 847.951C850.963 839.045 849.21 831.448 845.704 825.161C842.198 818.699 837.468 813.809 831.507 810.491C825.547 806.999 819.149 805.252 812.315 805.252C805.477 805.252 799.168 806.911 793.382 810.229C787.598 813.547 782.865 818.437 779.185 824.899C775.679 831.186 773.926 838.696 773.926 847.427C773.926 856.159 775.679 863.844 779.185 870.48C782.865 876.942 787.598 881.919 793.382 885.411C799.343 888.904 805.652 890.651 812.315 890.651C819.149 890.651 825.547 888.992 831.507 885.673C837.468 882.181 842.198 877.291 845.704 871.004C849.21 864.542 850.963 856.858 850.963 847.951Z" fill="#001A1F"/>
<path d="M960.8 726.66V920.509H923.99V726.66H960.8Z" fill="#001A1F"/>
<path d="M159.683 1001.57C155.746 1001.57 152.186 1000.9 149.003 999.554C145.877 998.212 143.396 996.275 141.56 993.749C139.728 991.226 138.783 988.243 138.729 984.804H150.864C151.027 987.113 151.835 988.942 153.291 990.285C154.801 991.627 156.851 992.298 159.44 992.298C162.083 992.298 164.159 991.681 165.669 990.447C167.179 989.156 167.936 987.492 167.936 985.45C167.936 983.783 167.422 982.412 166.397 981.337C165.372 980.262 164.079 979.431 162.515 978.839C161.004 978.194 158.9 977.497 156.205 976.743C152.537 975.668 149.542 974.621 147.224 973.6C144.96 972.525 142.991 970.941 141.318 968.845C139.702 966.694 138.891 963.847 138.891 960.301C138.891 956.97 139.728 954.066 141.401 951.594C143.071 949.123 145.417 947.243 148.438 945.954C151.458 944.609 154.909 943.938 158.792 943.938C164.618 943.938 169.337 945.362 172.952 948.21C176.617 951.005 178.641 954.928 179.018 959.979H166.56C166.451 958.042 165.615 956.458 164.05 955.224C162.543 953.932 160.519 953.287 157.984 953.287C155.772 953.287 153.993 953.853 152.646 954.982C151.349 956.108 150.704 957.749 150.704 959.897C150.704 961.401 151.19 962.664 152.16 963.685C153.185 964.652 154.424 965.46 155.88 966.103C157.39 966.694 159.494 967.394 162.192 968.199C165.857 969.274 168.852 970.349 171.17 971.424C173.491 972.5 175.487 974.109 177.157 976.26C178.83 978.41 179.666 981.231 179.666 984.724C179.666 987.733 178.884 990.527 177.319 993.106C175.755 995.686 173.463 997.754 170.442 999.312C167.422 1000.82 163.836 1001.57 159.683 1001.57Z" fill="#001A1F"/>
<path d="M209.388 1001.73C205.071 1001.73 201.189 1000.79 197.737 998.905C194.286 996.971 191.563 994.258 189.567 990.765C187.626 987.272 186.655 983.242 186.655 978.674C186.655 974.106 187.652 970.076 189.647 966.583C191.697 963.09 194.474 960.405 197.98 958.522C201.486 956.588 205.397 955.621 209.71 955.621C214.027 955.621 217.935 956.588 221.441 958.522C224.946 960.405 227.698 963.09 229.694 966.583C231.744 970.076 232.768 974.106 232.768 978.674C232.768 983.242 231.715 987.272 229.611 990.765C227.564 994.258 224.758 996.971 221.198 998.905C217.692 1000.79 213.756 1001.73 209.388 1001.73ZM209.388 991.894C211.438 991.894 213.35 991.41 215.132 990.443C216.964 989.422 218.42 987.918 219.499 985.93C220.579 983.941 221.118 981.521 221.118 978.674C221.118 974.43 219.985 971.179 217.721 968.921C215.508 966.611 212.785 965.457 209.548 965.457C206.313 965.457 203.59 966.611 201.377 968.921C199.222 971.179 198.143 974.43 198.143 978.674C198.143 982.92 199.193 986.197 201.297 988.506C203.456 990.765 206.151 991.894 209.388 991.894Z" fill="#001A1F"/>
<path d="M261.624 965.616H253.776V1001H242.288V965.616H237.192V956.347H242.288V954.091C242.288 948.61 243.853 944.58 246.981 942C250.107 939.42 254.829 938.212 261.138 938.374V947.885C258.386 947.831 256.474 948.286 255.394 949.256C254.315 950.223 253.776 951.969 253.776 954.495V956.347H261.624V965.616Z" fill="#001A1F"/>
<path d="M282.149 965.616V987.218C282.149 988.722 282.501 989.823 283.203 990.523C283.957 991.168 285.198 991.49 286.923 991.49H292.181V1001H285.061C275.515 1001 270.742 996.379 270.742 987.138V965.616H265.403V956.346H270.742V945.305H282.149V956.346H292.181V965.616H282.149Z" fill="#001A1F"/>
<path d="M362.461 956.348L349.354 1001H337.139L328.968 969.81L320.798 1001H308.5L295.313 956.348H306.801L314.729 990.362L323.305 956.348H335.277L343.691 990.283L351.621 956.348H362.461Z" fill="#001A1F"/>
<path d="M365.676 978.512C365.676 973.998 366.566 969.996 368.348 966.503C370.181 963.01 372.636 960.323 375.707 958.443C378.836 956.563 382.316 955.621 386.145 955.621C389.487 955.621 392.402 956.292 394.883 957.638C397.418 958.98 399.439 960.672 400.949 962.715V956.346H412.357V1001H400.949V994.474C399.493 996.567 397.472 998.313 394.883 999.713C392.348 1001.06 389.407 1001.73 386.065 1001.73C382.288 1001.73 378.836 1000.76 375.707 998.825C372.636 996.891 370.181 994.178 368.348 990.685C366.566 987.138 365.676 983.08 365.676 978.512ZM400.949 978.674C400.949 975.935 400.41 973.597 399.331 971.663C398.252 969.675 396.796 968.17 394.963 967.149C393.13 966.074 391.16 965.536 389.056 965.536C386.952 965.536 385.011 966.045 383.233 967.066C381.451 968.087 379.995 969.592 378.865 971.58C377.786 973.514 377.246 975.827 377.246 978.512C377.246 981.2 377.786 983.563 378.865 985.605C379.995 987.593 381.451 989.126 383.233 990.202C385.065 991.274 387.007 991.811 389.056 991.811C391.16 991.811 393.13 991.302 394.963 990.281C396.796 989.206 398.252 987.702 399.331 985.767C400.41 983.779 400.949 981.416 400.949 978.674Z" fill="#001A1F"/>
<path d="M434.744 963.277C436.2 960.914 438.087 959.059 440.408 957.717C442.78 956.374 445.478 955.703 448.498 955.703V967.549H445.503C441.944 967.549 439.249 968.383 437.413 970.05C435.634 971.716 434.744 974.617 434.744 978.753V1001H423.419V956.346H434.744V963.277Z" fill="#001A1F"/>
<path d="M497.786 977.707C497.786 979.319 497.681 980.77 497.464 982.058H464.7C464.968 985.284 466.101 987.81 468.097 989.636C470.092 991.464 472.547 992.377 475.459 992.377C479.667 992.377 482.659 990.577 484.438 986.976H496.656C495.36 991.274 492.879 994.821 489.211 997.617C485.545 1000.36 481.04 1001.73 475.702 1001.73C471.388 1001.73 467.503 1000.79 464.051 998.905C460.654 996.971 457.985 994.258 456.044 990.765C454.154 987.272 453.212 983.242 453.212 978.674C453.212 974.052 454.154 969.996 456.044 966.503C457.931 963.01 460.574 960.323 463.972 958.443C467.369 956.563 471.28 955.621 475.702 955.621C479.961 955.621 483.764 956.534 487.11 958.363C490.507 960.189 493.122 962.794 494.957 966.182C496.844 969.512 497.786 973.355 497.786 977.707ZM486.056 974.484C486.002 971.58 484.951 969.271 482.902 967.55C480.852 965.778 478.345 964.891 475.379 964.891C472.573 964.891 470.201 965.752 468.259 967.47C466.372 969.137 465.211 971.475 464.779 974.484H486.056Z" fill="#001A1F"/>
<path d="M522.582 972.791C522.582 967.256 523.824 962.313 526.305 957.961C528.84 953.555 532.265 950.142 536.579 947.725C540.947 945.253 545.828 944.016 551.221 944.016C557.533 944.016 563.06 945.628 567.807 948.854C572.552 952.076 575.869 956.536 577.756 962.233H564.733C563.437 959.545 561.604 957.532 559.232 956.189C556.911 954.844 554.216 954.172 551.141 954.172C547.85 954.172 544.912 954.952 542.323 956.51C539.788 958.015 537.792 960.165 536.336 962.958C534.935 965.754 534.232 969.031 534.232 972.791C534.232 976.5 534.935 979.777 536.336 982.626C537.792 985.42 539.788 987.595 542.323 989.154C544.912 990.659 547.85 991.412 551.141 991.412C554.216 991.412 556.911 990.738 559.232 989.396C561.604 987.999 563.437 985.957 564.733 983.269H577.756C575.869 989.02 572.552 993.506 567.807 996.731C563.114 999.903 557.587 1001.49 551.221 1001.49C545.828 1001.49 540.947 1000.28 536.579 997.86C532.265 995.389 528.84 991.976 526.305 987.624C523.824 983.269 522.582 978.326 522.582 972.791Z" fill="#001A1F"/>
<path d="M607.331 1001.73C603.018 1001.73 599.135 1000.79 595.684 998.905C592.229 996.971 589.506 994.258 587.51 990.765C585.569 987.272 584.599 983.242 584.599 978.674C584.599 974.106 585.598 970.076 587.593 966.583C589.643 963.09 592.421 960.405 595.926 958.522C599.432 956.588 603.34 955.621 607.657 955.621C611.97 955.621 615.881 956.588 619.387 958.522C622.893 960.405 625.642 963.09 627.637 966.583C629.687 970.076 630.712 974.106 630.712 978.674C630.712 983.242 629.661 987.272 627.557 990.765C625.508 994.258 622.704 996.971 619.144 998.905C615.639 1000.79 611.702 1001.73 607.331 1001.73ZM607.331 991.894C609.381 991.894 611.297 991.41 613.075 990.443C614.911 989.422 616.367 987.918 617.446 985.93C618.522 983.941 619.061 981.521 619.061 978.674C619.061 974.43 617.931 971.179 615.664 968.921C613.455 966.611 610.731 965.457 607.494 965.457C604.257 965.457 601.533 966.611 599.324 968.921C597.165 971.179 596.086 974.43 596.086 978.674C596.086 982.92 597.14 986.197 599.241 988.506C601.399 990.765 604.097 991.894 607.331 991.894Z" fill="#001A1F"/>
<path d="M663.857 955.703C669.198 955.703 673.512 957.395 676.804 960.78C680.092 964.111 681.737 968.787 681.737 974.805V1001H670.412V976.335C670.412 972.789 669.521 970.075 667.742 968.195C665.961 966.261 663.535 965.294 660.46 965.294C657.331 965.294 654.85 966.261 653.018 968.195C651.239 970.075 650.348 972.789 650.348 976.335V1001H639.021V956.346H650.348V961.909C651.858 959.975 653.774 958.471 656.092 957.395C658.464 956.266 661.054 955.703 663.857 955.703Z" fill="#001A1F"/>
<path d="M709.661 1001.73C705.993 1001.73 702.704 1001.08 699.792 999.792C696.877 998.45 694.559 996.65 692.832 994.391C691.162 992.136 690.246 989.636 690.083 986.897H701.491C701.705 988.615 702.541 990.04 703.997 991.169C705.507 992.295 707.369 992.861 709.581 992.861C711.736 992.861 713.409 992.432 714.597 991.57C715.836 990.711 716.455 989.61 716.455 988.265C716.455 986.814 715.702 985.739 714.192 985.042C712.736 984.288 710.389 983.483 707.152 982.624C703.809 981.817 701.06 980.986 698.901 980.124C696.797 979.265 694.965 977.949 693.4 976.177C691.89 974.402 691.134 972.01 691.134 969.001C691.134 966.529 691.836 964.273 693.237 962.231C694.693 960.189 696.743 958.576 699.387 957.396C702.084 956.213 705.239 955.621 708.853 955.621C714.192 955.621 718.451 956.966 721.634 959.651C724.817 962.285 726.57 965.858 726.892 970.371H716.053C715.89 968.599 715.134 967.203 713.786 966.182C712.493 965.107 710.74 964.569 708.528 964.569C706.478 964.569 704.888 964.945 703.755 965.698C702.675 966.449 702.136 967.499 702.136 968.841C702.136 970.346 702.892 971.501 704.403 972.306C705.913 973.059 708.259 973.839 711.44 974.644C714.677 975.451 717.346 976.282 719.45 977.144C721.554 978.003 723.361 979.345 724.871 981.174C726.433 982.946 727.244 985.309 727.298 988.265C727.298 990.844 726.57 993.157 725.114 995.199C723.709 997.238 721.66 998.851 718.965 1000.03C716.321 1001.16 713.221 1001.73 709.661 1001.73Z" fill="#001A1F"/>
<path d="M778.905 956.348V1001H767.498V995.36C766.042 997.294 764.126 998.827 761.754 999.956C759.433 1001.03 756.898 1001.57 754.149 1001.57C750.643 1001.57 747.543 1000.84 744.845 999.39C742.147 997.885 740.018 995.709 738.453 992.862C736.943 989.961 736.189 986.52 736.189 982.543V956.348H747.514V980.933C747.514 984.48 748.405 987.219 750.184 989.153C751.965 991.033 754.392 991.975 757.466 991.975C760.595 991.975 763.047 991.033 764.829 989.153C766.607 987.219 767.498 984.48 767.498 980.933V956.348H778.905Z" fill="#001A1F"/>
<path d="M801.406 941.359V1001.01H790.078V941.359H801.406Z" fill="#001A1F"/>
<path d="M825.781 965.616V987.218C825.781 988.722 826.129 989.823 826.832 990.523C827.585 991.168 828.827 991.49 830.554 991.49H835.813V1001H828.693C819.147 1001 814.374 996.379 814.374 987.138V965.616H809.032V956.346H814.374V945.305H825.781V956.346H835.813V965.616H825.781Z" fill="#001A1F"/>
<path d="M849.7 951.029C847.705 951.029 846.035 950.412 844.684 949.174C843.391 947.886 842.743 946.299 842.743 944.419C842.743 942.539 843.391 940.98 844.684 939.746C846.035 938.454 847.705 937.809 849.7 937.809C851.696 937.809 853.34 938.454 854.636 939.746C855.984 940.98 856.657 942.539 856.657 944.419C856.657 946.299 855.984 947.886 854.636 949.174C853.34 950.412 851.696 951.029 849.7 951.029ZM855.284 956.347V1001H843.956V956.347H855.284Z" fill="#001A1F"/>
<path d="M891.31 955.703C896.651 955.703 900.965 957.395 904.257 960.78C907.545 964.111 909.19 968.787 909.19 974.805V1001H897.865V976.335C897.865 972.789 896.974 970.075 895.196 968.195C893.414 966.261 890.988 965.294 887.913 965.294C884.784 965.294 882.303 966.261 880.471 968.195C878.692 970.075 877.801 972.789 877.801 976.335V1001H866.474V956.346H877.801V961.909C879.312 959.975 881.224 958.471 883.545 957.395C885.917 956.266 888.507 955.703 891.31 955.703Z" fill="#001A1F"/>
<path d="M937.517 955.621C940.859 955.621 943.797 956.292 946.332 957.638C948.867 958.926 950.863 960.618 952.319 962.715V956.346H963.726V1001.32C963.726 1005.46 962.89 1009.14 961.22 1012.37C959.547 1015.64 957.04 1018.22 953.695 1020.1C950.352 1022.04 946.306 1023 941.559 1023C935.196 1023 929.966 1021.53 925.866 1018.57C921.821 1015.62 919.529 1011.59 918.989 1006.48H930.234C930.828 1008.52 932.095 1010.14 934.037 1011.32C936.032 1012.55 938.433 1013.17 941.236 1013.17C944.528 1013.17 947.197 1012.18 949.247 1010.19C951.297 1008.25 952.319 1005.3 952.319 1001.32V994.391C950.863 996.487 948.841 998.234 946.252 999.63C943.717 1001.03 940.805 1001.73 937.517 1001.73C933.74 1001.73 930.288 1000.76 927.159 998.825C924.031 996.891 921.55 994.178 919.717 990.685C917.939 987.138 917.048 983.08 917.048 978.512C917.048 973.998 917.939 969.996 919.717 966.503C921.55 963.01 924.005 960.323 927.079 958.443C930.208 956.563 933.685 955.621 937.517 955.621ZM952.319 978.674C952.319 975.935 951.782 973.597 950.703 971.663C949.624 969.675 948.168 968.17 946.332 967.149C944.499 966.074 942.532 965.536 940.428 965.536C938.324 965.536 936.383 966.045 934.602 967.066C932.823 968.087 931.367 969.592 930.234 971.58C929.155 973.514 928.615 975.827 928.615 978.512C928.615 981.2 929.155 983.563 930.234 985.605C931.367 987.593 932.823 989.126 934.602 990.202C936.437 991.274 938.379 991.811 940.428 991.811C942.532 991.811 944.499 991.302 946.332 990.281C948.168 989.206 949.624 987.702 950.703 985.767C951.782 983.779 952.319 981.416 952.319 978.674Z" fill="#001A1F"/>
<defs>
<clipPath id="clip0_25_4597">
<rect width="622.436" height="622.436" fill="white" transform="translate(228.431 57)"/>
</clipPath>
</defs>
</svg>
